<?xml version="1.0" encoding="UTF-8"?>
<!DOCTYPE svg PUBLIC "-//W3C//DTD SVG 1.1//EN" "http://www.w3.org/Graphics/SVG/1.1/DTD/svg11.dtd">
<svg xmlns="http://www.w3.org/2000/svg" version="1.1" width="225px" height="225px" style="shape-rendering:geometricPrecision; text-rendering:geometricPrecision; image-rendering:optimizeQuality; fill-rule:evenodd; clip-rule:evenodd" xmlns:xlink="http://www.w3.org/1999/xlink">
<g><path style="opacity:1" fill="#fefefe" d="M -0.5,-0.5 C 74.5,-0.5 149.5,-0.5 224.5,-0.5C 224.5,74.5 224.5,149.5 224.5,224.5C 149.5,224.5 74.5,224.5 -0.5,224.5C -0.5,149.5 -0.5,74.5 -0.5,-0.5 Z"/></g>
<g><path style="opacity:1" fill="#414142" d="M 158.5,90.5 C 157.167,91.5 155.833,92.5 154.5,93.5C 152.871,94.6253 151.371,95.9586 150,97.5C 149.667,89.5 149.333,81.5 149,73.5C 142.986,67.3185 136.819,61.3185 130.5,55.5C 112.204,61.7654 93.8704,67.9321 75.5,74C 74.6834,81.7543 74.1834,89.5876 74,97.5C 72.6288,95.9586 71.1288,94.6253 69.5,93.5C 68.1667,92.5 66.8333,91.5 65.5,90.5C 63.2191,73.2353 67.0525,57.5686 77,43.5C 90.7541,29.7655 107.254,24.7655 126.5,28.5C 127.833,31.1667 129.167,33.8333 130.5,36.5C 144.382,39.5501 153.215,47.8835 157,61.5C 158.324,71.116 158.824,80.7827 158.5,90.5 Z"/></g>
<g><path style="opacity:1" fill="#feb64c" d="M 154.5,93.5 C 154.797,97.7675 154.464,101.934 153.5,106C 154.448,106.483 155.448,106.649 156.5,106.5C 155.791,107.404 154.791,107.737 153.5,107.5C 152.075,120.365 146.075,130.365 135.5,137.5C 119.791,146.759 104.125,146.759 88.5,137.5C 77.9246,130.365 71.9246,120.365 70.5,107.5C 68.901,107.768 67.5676,107.434 66.5,106.5C 67.8734,106.657 69.2068,106.49 70.5,106C 69.5363,101.934 69.203,97.7675 69.5,93.5C 71.1288,94.6253 72.6288,95.9586 74,97.5C 74.1834,89.5876 74.6834,81.7543 75.5,74C 93.8704,67.9321 112.204,61.7654 130.5,55.5C 136.819,61.3185 142.986,67.3185 149,73.5C 149.333,81.5 149.667,89.5 150,97.5C 151.371,95.9586 152.871,94.6253 154.5,93.5 Z"/></g>
<g><path style="opacity:1" fill="#fea727" d="M 65.5,90.5 C 66.8333,91.5 68.1667,92.5 69.5,93.5C 69.203,97.7675 69.5363,101.934 70.5,106C 69.2068,106.49 67.8734,106.657 66.5,106.5C 60.7252,103.34 59.2252,98.6737 62,92.5C 62.8159,91.1772 63.9826,90.5106 65.5,90.5 Z"/></g>
<g><path style="opacity:1" fill="#ffa728" d="M 158.5,90.5 C 161.853,91.5124 163.52,93.8458 163.5,97.5C 163.288,102.298 160.955,105.298 156.5,106.5C 155.448,106.649 154.448,106.483 153.5,106C 154.464,101.934 154.797,97.7675 154.5,93.5C 155.833,92.5 157.167,91.5 158.5,90.5 Z"/></g>
<g><path style="opacity:1" fill="#774618" d="M 90.5,93.5 C 97.4863,93.331 99.153,96.1643 95.5,102C 88.8362,102.176 87.1696,99.3429 90.5,93.5 Z"/></g>
<g><path style="opacity:1" fill="#794819" d="M 128.5,93.5 C 134.487,92.9773 136.487,95.4773 134.5,101C 126.839,103.168 124.839,100.668 128.5,93.5 Z"/></g>
<g><path style="opacity:1" fill="#ff9805" d="M 88.5,137.5 C 104.125,146.759 119.791,146.759 135.5,137.5C 135.5,143.167 135.5,148.833 135.5,154.5C 127.522,155.294 119.855,156.96 112.5,159.5C 112.167,159.5 111.833,159.5 111.5,159.5C 104.145,156.96 96.4779,155.294 88.5,154.5C 88.5,148.833 88.5,143.167 88.5,137.5 Z"/></g>
<g><path style="opacity:1" fill="#3f50b4" d="M 88.5,154.5 C 93.5945,167.014 98.9278,179.347 104.5,191.5C 106.701,197.598 109.201,203.598 112,209.5C 114.799,203.598 117.299,197.598 119.5,191.5C 125.072,179.347 130.406,167.014 135.5,154.5C 166.308,161.301 183.308,180.301 186.5,211.5C 186.5,212.5 186.5,213.5 186.5,214.5C 136.833,214.5 87.1667,214.5 37.5,214.5C 37.5,212.167 37.5,209.833 37.5,207.5C 42.5456,178.452 59.5456,160.786 88.5,154.5 Z"/></g>
<g><path style="opacity:1" fill="#fbf9f9" d="M 135.5,154.5 C 130.406,167.014 125.072,179.347 119.5,191.5C 118.715,185.458 117.715,179.458 116.5,173.5C 118.041,171.796 119.375,169.963 120.5,168C 118.346,164.679 115.679,161.846 112.5,159.5C 119.855,156.96 127.522,155.294 135.5,154.5 Z"/></g>
<g><path style="opacity:1" fill="#fbf6f6" d="M 88.5,154.5 C 96.4779,155.294 104.145,156.96 111.5,159.5C 108.856,162.48 106.189,165.48 103.5,168.5C 105.041,170.204 106.375,172.037 107.5,174C 106.229,179.792 105.229,185.626 104.5,191.5C 98.9278,179.347 93.5945,167.014 88.5,154.5 Z"/></g>
<g><path style="opacity:1" fill="#d33230" d="M 111.5,159.5 C 111.833,159.5 112.167,159.5 112.5,159.5C 115.679,161.846 118.346,164.679 120.5,168C 119.375,169.963 118.041,171.796 116.5,173.5C 117.715,179.458 118.715,185.458 119.5,191.5C 117.299,197.598 114.799,203.598 112,209.5C 109.201,203.598 106.701,197.598 104.5,191.5C 105.229,185.626 106.229,179.792 107.5,174C 106.375,172.037 105.041,170.204 103.5,168.5C 106.189,165.48 108.856,162.48 111.5,159.5 Z"/></g>
<g><path style="opacity:1" fill="#8e96cf" d="M 37.5,207.5 C 37.5,209.833 37.5,212.167 37.5,214.5C 87.1667,214.5 136.833,214.5 186.5,214.5C 186.5,213.5 186.5,212.5 186.5,211.5C 187.434,212.568 187.768,213.901 187.5,215.5C 137.167,215.5 86.8333,215.5 36.5,215.5C 36.1936,212.615 36.5269,209.948 37.5,207.5 Z"/></g>
</svg>
